<?xml version="1.0" standalone="no"?>
<!DOCTYPE svg PUBLIC "-//W3C//DTD SVG 20010904//EN"
 "http://www.w3.org/TR/2001/REC-SVG-20010904/DTD/svg10.dtd">
<svg version="1.0" xmlns="http://www.w3.org/2000/svg"
 width="4000.000000pt" height="4000.000000pt" viewBox="0 0 4000.000000 4000.000000"
 preserveAspectRatio="xMidYMid meet">

<g transform="translate(0.000000,4000.000000) scale(0.100000,-0.100000)"
fill="#000000" stroke="none">
<path d="M0 20000 l0 -20000 20000 0 20000 0 0 20000 0 20000 -20000 0 -20000
0 0 -20000z m25480 11310 c-19 -5 -75 -16 -125 -25 -86 -15 -355 -74 -440 -95
-62 -16 -176 -40 -215 -46 -19 -3 -60 -14 -90 -24 -30 -10 -93 -28 -140 -39
-47 -12 -112 -30 -145 -41 -178 -56 -230 -74 -254 -86 -14 -8 -31 -14 -37 -14
-17 0 -92 -39 -100 -51 -4 -8 -3 -9 4 -5 8 5 10 1 5 -9 -3 -10 0 -21 8 -27 10
-7 9 -8 -6 -2 -11 4 -49 8 -85 9 -36 2 -59 1 -52 -2 6 -3 12 -11 12 -19 0 -8
7 -14 16 -14 12 0 15 -6 11 -21 -5 -17 -3 -18 9 -8 8 7 13 18 10 25 -7 19 5
23 33 13 19 -8 21 -12 11 -24 -6 -8 -8 -20 -4 -26 4 -7 3 -9 -4 -5 -6 3 -14
-3 -17 -15 -5 -15 -10 -18 -18 -10 -13 13 -27 14 -27 2 0 -16 38 -19 66 -5 37
19 47 17 34 -6 -8 -15 -17 -19 -31 -15 -15 5 -19 2 -19 -19 0 -14 -4 -26 -10
-26 -5 0 -7 7 -4 15 4 8 1 15 -5 15 -14 0 -14 -16 -1 -40 7 -13 7 -21 0 -25
-5 -3 -10 -1 -10 4 0 15 -11 13 -34 -4 -17 -13 -18 -17 -6 -28 10 -9 12 -9 6
1 -4 6 -2 12 3 12 6 0 11 -7 11 -15 0 -14 12 -19 33 -16 4 0 7 -4 7 -10 0 -7
-10 -9 -25 -7 -13 3 -23 2 -21 -1 13 -22 -63 -36 -84 -15 -8 8 -25 -3 -61 -39
-45 -44 -49 -51 -36 -65 13 -13 18 -13 38 2 29 20 40 20 33 2 -3 -8 -19 -18
-35 -21 -29 -6 -29 -8 -12 -23 10 -10 18 -24 18 -32 0 -8 11 -20 25 -27 22
-11 22 -13 6 -19 -14 -5 -15 -9 -5 -15 11 -6 10 -9 -1 -13 -8 -2 -23 -7 -32
-10 -11 -3 -17 -14 -15 -27 2 -25 -11 -33 -33 -19 -12 7 -11 12 9 29 12 11 20
25 16 30 -3 7 3 11 14 11 24 0 26 8 8 30 -19 24 -45 21 -40 -4 2 -13 -1 -10
-11 9 -8 17 -15 23 -15 15 -1 -10 -4 -11 -12 -3 -14 14 6 53 27 53 9 0 14 5
12 11 -2 6 -7 10 -12 9 -5 -1 -12 4 -16 10 -10 17 -31 3 -24 -15 4 -10 -3 -18
-20 -25 -14 -5 -26 -12 -26 -15 0 -4 4 -3 10 0 5 3 12 -7 16 -22 3 -15 7 -34
10 -40 2 -7 -2 -13 -7 -13 -6 0 -9 -8 -7 -18 6 -20 -15 -55 -29 -50 -4 2 -10
-8 -11 -21 -2 -15 0 -21 7 -17 6 4 11 4 11 -1 -1 -4 -17 -18 -37 -31 -38 -24
-67 -23 -57 3 3 8 1 15 -6 15 -6 0 -10 -8 -8 -17 2 -10 -5 -24 -17 -31 -17
-12 -17 -13 -1 -8 10 4 24 2 31 -4 16 -13 75 7 75 25 0 16 19 30 28 20 3 -3 0
-10 -8 -16 -11 -7 -8 -8 11 -4 17 4 30 1 38 -9 11 -14 11 -16 -6 -16 -11 0
-31 -15 -46 -33 -16 -20 -45 -40 -76 -51 -28 -10 -51 -21 -51 -25 0 -4 -6 -8
-12 -9 -15 -1 -52 -10 -55 -12 -2 -2 -7 -3 -11 -4 -14 -2 -82 -51 -82 -58 0
-12 3 -11 72 21 116 54 182 82 248 107 36 14 74 31 85 38 11 7 36 17 55 21 19
4 76 25 125 46 365 153 886 321 1265 408 47 11 126 29 175 40 86 20 134 26
124 16 -6 -5 -80 -26 -294 -80 -281 -71 -308 -80 -705 -218 -845 -294 -1821
-771 -2865 -1400 -398 -239 -635 -394 -1100 -717 -137 -96 -299 -207 -358
-248 -60 -41 -209 -150 -333 -243 -123 -93 -228 -168 -232 -167 -10 3 -59 -29
-117 -78 -27 -22 -99 -73 -160 -112 -104 -68 -186 -125 -211 -147 -6 -5 -37
-28 -69 -50 -32 -22 -72 -51 -89 -65 -48 -40 -255 -184 -416 -290 -209 -138
-531 -339 -585 -366 -16 -8 -52 -27 -80 -43 -112 -62 -141 -77 -170 -89 -28
-12 -29 -11 -10 3 11 9 56 37 100 61 44 25 114 66 157 92 42 26 98 60 125 76
26 16 91 57 143 91 52 34 133 86 180 115 47 29 101 64 121 77 19 12 38 23 42
23 5 0 18 9 30 21 12 12 60 48 107 80 105 73 138 97 316 229 78 58 181 132
229 165 49 33 95 68 103 77 9 9 19 15 24 12 4 -3 8 0 8 5 0 6 6 11 14 11 8 0
16 4 18 8 5 13 168 134 183 136 8 1 27 13 42 27 16 13 45 35 66 49 20 14 37
28 37 32 0 3 15 16 33 27 17 11 44 31 59 43 15 13 71 55 124 93 179 130 318
240 322 255 4 11 2 13 -9 5 -10 -8 -21 -4 -43 17 -16 15 -23 28 -17 28 6 0 11
5 11 10 0 7 -6 7 -19 0 -22 -11 -24 -50 -4 -50 7 0 13 -9 13 -21 0 -11 -4 -17
-10 -14 -5 3 -7 0 -4 -8 3 -9 -3 -16 -15 -20 -11 -3 -22 0 -23 5 -3 7 -10 5
-19 -3 -8 -8 -21 -15 -29 -17 -11 -3 -10 1 3 16 18 19 18 21 0 41 -20 24 -39
27 -58 7 -12 -12 -12 -15 1 -20 8 -3 13 -2 10 3 -3 5 1 11 9 15 16 6 18 -4 15
-61 -1 -19 3 -33 10 -33 6 0 8 -4 5 -10 -10 -17 -21 -11 -36 18 -23 44 -38 57
-45 38 -6 -17 -29 -22 -37 -8 -2 4 -2 1 -1 -5 2 -8 -7 -13 -21 -13 -14 0 -25
-4 -25 -10 0 -15 -43 -12 -65 3 -14 11 -15 16 -5 22 9 5 11 4 6 -3 -8 -13 23
-16 39 -4 14 10 17 32 5 32 -5 0 -7 7 -4 15 5 11 2 13 -10 9 -18 -7 -49 13
-40 27 9 15 24 10 18 -6 -7 -16 11 -21 20 -6 4 5 -6 19 -21 30 -27 19 -27 20
-6 21 28 0 62 65 44 83 -8 8 -11 6 -11 -10 0 -12 -4 -25 -10 -28 -6 -3 -7 1
-4 9 4 11 0 16 -14 16 -12 0 -23 -9 -27 -20 -3 -11 -10 -20 -15 -20 -4 0 -10
-9 -13 -20 -3 -13 0 -20 9 -20 8 0 14 -4 14 -10 0 -13 -2 -13 -36 5 -20 10
-23 15 -11 15 9 0 17 5 17 11 0 6 -9 8 -20 4 -14 -5 -20 -2 -20 10 0 10 -4 13
-12 8 -18 -11 -38 -13 -38 -3 0 5 6 10 13 13 6 2 -3 7 -20 11 -18 4 -33 12
-33 17 0 5 -9 9 -20 9 -12 0 -20 -7 -20 -17 0 -15 -2 -14 -15 3 -14 19 -15 18
-21 -5 -7 -24 -8 -24 -15 -4 -6 16 -14 19 -33 16 -14 -3 -26 -10 -26 -15 0 -5
-4 -6 -10 -3 -5 3 -10 2 -10 -4 0 -5 -9 -13 -21 -16 -25 -8 -41 -46 -25 -58 7
-6 4 -7 -6 -3 -10 3 -21 -2 -27 -11 -8 -15 -12 -14 -37 7 l-29 23 27 -7 c16
-3 30 -1 34 5 7 11 -12 29 -31 29 -5 0 -3 -5 5 -10 17 -11 10 -13 -14 -4 -14
5 -13 9 5 25 12 11 30 19 40 19 10 0 22 7 27 16 5 9 13 16 18 15 18 0 79 42
66 46 -7 3 -24 -2 -37 -11 -27 -18 -39 -21 -30 -7 3 6 -4 15 -15 21 -20 11
-21 10 -9 -11 9 -17 9 -24 0 -27 -6 -2 -18 -10 -25 -18 -8 -8 -21 -14 -30 -14
-8 0 -20 -9 -26 -20 -13 -25 -34 -27 -26 -2 3 9 -5 4 -19 -13 -13 -16 -27 -26
-31 -23 -3 4 11 23 31 43 33 30 35 35 17 35 -11 0 -24 -5 -27 -10 -4 -6 -15
-8 -26 -5 -14 5 -19 2 -19 -11 0 -9 -8 -23 -17 -31 -12 -10 -13 -12 -3 -8 8 4
6 -1 -5 -9 -17 -14 -20 -14 -27 -1 -7 11 1 23 25 44 28 25 45 61 29 61 -7 0
-141 -90 -155 -104 -6 -7 -39 -30 -72 -52 -33 -21 -107 -73 -165 -114 -168
-120 -237 -168 -429 -296 -64 -43 -121 -74 -121 -66 0 3 -7 -4 -16 -16 -8 -12
-19 -20 -23 -17 -5 2 -17 -2 -27 -10 -33 -25 -41 -16 -9 10 17 14 34 25 38 25
5 0 15 6 22 13 27 24 82 67 142 109 120 85 319 228 383 274 36 26 88 64 115
84 28 20 111 81 185 136 237 176 641 461 900 636 660 445 1433 919 1918 1177
465 246 751 384 1072 516 456 188 745 294 1080 395 58 18 132 40 165 51 101
31 362 96 520 128 307 64 342 71 450 87 61 8 146 21 190 28 44 8 96 13 115 14
l35 0 -35 -8z m-1350 -410 c0 -5 -5 -10 -11 -10 -5 0 -7 5 -4 10 3 6 8 10 11
10 2 0 4 -4 4 -10z m-29 -33 c-13 -13 -31 0 -24 19 4 11 8 12 20 3 9 -8 10
-16 4 -22z m-101 3 c0 -5 -5 -10 -11 -10 -5 0 -7 5 -4 10 3 6 8 10 11 10 2 0
4 -4 4 -10z m27 -25 c0 -17 -13 -20 -21 -6 -4 5 0 12 6 14 7 3 13 6 14 6 0 1
1 -6 1 -14z m-77 -56 c0 -5 -4 -9 -10 -9 -5 0 -10 7 -10 16 0 8 5 12 10 9 6
-3 10 -10 10 -16z m55 -7 c-3 -3 -11 0 -18 7 -9 10 -8 11 6 5 10 -3 15 -9 12
-12z m49 -1 c4 -5 -3 -7 -14 -4 -23 6 -26 13 -6 13 8 0 17 -4 20 -9z m-97
-107 c-3 -3 -12 -4 -19 -1 -8 3 -5 6 6 6 11 1 17 -2 13 -5z m-32 -23 c9 -16
-9 -20 -23 -5 -10 12 -10 14 2 14 8 0 17 -4 21 -9z m128 -41 c-3 -12 -8 -19
-11 -16 -5 6 5 36 12 36 2 0 2 -9 -1 -20z m-317 -75 c-9 -9 -16 -13 -16 -8 0
12 22 34 28 28 2 -2 -3 -11 -12 -20z m44 -30 c0 -8 -4 -15 -9 -15 -5 0 -11 7
-15 15 -3 9 0 15 9 15 8 0 15 -7 15 -15z m-20 -35 c0 -5 -5 -10 -11 -10 -5 0
-7 5 -4 10 3 6 8 10 11 10 2 0 4 -4 4 -10z m-120 -150 c0 -5 -4 -10 -10 -10
-5 0 -10 5 -10 10 0 6 5 10 10 10 6 0 10 -4 10 -10z m-29 -79 c-8 -5 -11 -16
-8 -25 7 -19 3 -20 -24 -6 -22 12 -26 32 -5 24 8 -3 17 -1 21 5 3 6 12 11 18
11 8 0 7 -3 -2 -9z m-3991 -2002 c0 -6 -4 -7 -10 -4 -5 3 -10 1 -10 -4 0 -6
-7 -11 -15 -11 -8 0 -15 -5 -15 -11 0 -5 5 -7 12 -3 6 4 8 3 5 -3 -4 -6 -15
-13 -25 -15 -19 -5 -20 1 -13 45 0 5 7 7 13 5 7 -3 19 1 26 9 14 14 32 9 32
-8z m-96 -46 c-1 -21 -3 -40 -3 -43 -1 -3 -10 5 -21 18 -18 22 -18 24 -2 42
25 27 29 24 26 -17z m-390 -18 c-6 -16 -24 -21 -24 -7 0 11 11 22 21 22 5 0 6
-7 3 -15z m570 7 c2 -4 -10 -9 -27 -10 -24 -2 -28 0 -17 8 18 12 37 13 44 2z
m-504 -23 c0 -11 -4 -18 -10 -14 -5 3 -7 12 -3 20 7 21 13 19 13 -6z m520 -56
c0 -7 4 -13 10 -13 5 0 7 -6 4 -14 -4 -11 0 -13 18 -9 17 4 20 3 12 -6 -6 -7
-23 -9 -41 -5 -23 4 -29 10 -26 24 2 9 -3 24 -12 33 -23 24 -8 43 16 21 10 -9
19 -23 19 -31z m-83 31 c-3 -3 -12 -4 -19 -1 -8 3 -5 6 6 6 11 1 17 -2 13 -5z
m-13 -50 c5 -14 4 -15 -9 -4 -17 14 -19 20 -6 20 5 0 12 -7 15 -16z m-218 -16
c-9 -5 -22 -7 -29 -4 -7 2 -4 5 6 5 9 1 17 6 17 12 0 5 5 7 11 3 8 -5 6 -10
-5 -16z m165 9 c-1 -12 -15 -9 -19 4 -3 6 1 10 8 8 6 -3 11 -8 11 -12z m-91
-7 c0 -5 -2 -10 -4 -10 -3 0 -8 5 -11 10 -3 6 -1 10 4 10 6 0 11 -4 11 -10z
m30 -44 c-9 -11 -70 -28 -70 -20 0 14 36 33 53 28 16 -5 19 -3 13 11 -3 9 -3
22 1 28 5 8 9 4 11 -11 2 -13 -1 -29 -8 -36z m-229 -8 c-8 -8 -11 -8 -8 -2 4
7 0 15 -9 18 -8 3 -12 11 -8 17 4 7 11 6 22 -5 14 -13 14 -18 3 -28z m319 21
c0 -5 -7 -9 -15 -9 -15 0 -20 12 -9 23 8 8 24 -1 24 -14z m300 11 c0 -5 -2
-10 -4 -10 -3 0 -8 5 -11 10 -3 6 -1 10 4 10 6 0 11 -4 11 -10z m-60 -15 c0
-2 -9 -9 -20 -15 -22 -12 -44 -5 -35 11 6 9 55 13 55 4z m31 -8 c-1 -12 -15
-9 -19 4 -3 6 1 10 8 8 6 -3 11 -8 11 -12z m-176 -146 c3 -5 1 -12 -5 -16 -5
-3 -10 1 -10 9 0 18 6 21 15 7z m-1610 -321 c-3 -5 -13 -10 -21 -10 -8 0 -12
5 -9 10 3 6 13 10 21 10 8 0 12 -4 9 -10z m5415 -4754 l1755 -1 6 -150 c4 -82
10 -502 14 -932 l8 -783 -140 0 -141 0 -7 43 c-104 643 -288 958 -669 1146
-187 91 -380 138 -670 162 -134 11 -2163 16 -2173 5 -3 -3 -8 -341 -11 -751
-4 -556 -2 -745 7 -745 8 0 11 -235 11 -915 l0 -915 793 0 c862 0 935 4 1112
55 177 52 327 154 448 306 118 147 201 344 235 554 l16 105 163 0 163 0 0
-1280 0 -1280 -172 2 -173 3 -7 89 c-16 183 -99 445 -180 567 -137 205 -349
321 -653 358 -59 7 -378 11 -917 11 l-828 0 0 -1539 c0 -1650 -1 -1608 50
-1743 82 -219 316 -342 745 -394 66 -7 159 -14 208 -14 l87 0 0 -140 0 -140
-1819 0 c-1541 0 -1820 2 -1830 14 -8 9 -11 53 -9 132 l3 119 122 12 c133 13
339 53 437 85 97 31 236 101 298 149 107 85 164 173 198 306 19 73 20 158 20
3301 1 2842 -1 3239 -15 3327 -24 163 -61 263 -122 335 -42 50 -162 124 -250
155 -43 15 -85 30 -93 34 -37 19 -269 73 -329 76 -132 8 -256 28 -268 43 -9
11 -13 51 -13 119 l0 103 128 1 c70 0 136 5 147 10 12 6 497 7 1290 3 699 -4
2060 -8 3025 -8z m6258 6 l392 -2 0 -120 c0 -66 -2 -120 -5 -120 -27 0 -395
-52 -432 -61 -169 -42 -359 -185 -452 -343 -44 -73 -96 -226 -116 -341 -31
-178 -36 -648 -32 -3445 3 -3016 -1 -2822 62 -3058 64 -242 225 -422 430 -484
98 -29 355 -74 483 -84 l92 -7 0 -122 0 -122 -1102 -6 c-607 -4 -1397 -7
-1755 -7 l-653 0 0 133 0 134 123 12 c220 21 439 81 561 153 167 99 265 257
311 504 32 168 37 611 31 2339 -9 2147 -23 3870 -35 4055 -16 255 -57 367
-175 485 -137 137 -291 194 -665 245 -81 11 -154 26 -167 35 -23 15 -24 21
-24 115 0 55 1 101 3 102 10 10 2255 17 3125 10z m-15366 -82 c45 -113 241
-617 373 -960 64 -168 186 -478 269 -690 175 -442 367 -927 401 -1015 13 -33
35 -89 49 -125 13 -36 82 -211 152 -390 69 -179 137 -352 149 -385 13 -33 42
-107 65 -165 22 -58 99 -253 170 -435 71 -181 181 -463 245 -625 64 -162 160
-412 215 -555 105 -276 161 -420 297 -765 46 -118 121 -307 165 -420 210 -535
395 -926 513 -1082 104 -138 226 -228 386 -284 78 -27 286 -74 331 -74 58 0
58 -1 58 -142 l0 -129 -1683 2 c-926 1 -1704 5 -1728 8 l-44 6 -3 103 c-1 56
2 110 7 121 8 15 27 20 88 25 43 4 125 14 183 22 383 55 514 120 600 299 39
83 51 142 51 260 0 120 1 118 -134 465 -48 125 -266 695 -327 855 -21 55 -55
143 -75 195 -82 212 -97 252 -158 410 l-63 165 -1435 -4 c-789 -2 -1438 -7
-1443 -11 -5 -5 -62 -163 -128 -352 -65 -189 -139 -399 -163 -468 -24 -69 -78
-224 -120 -345 -42 -121 -92 -265 -112 -320 -141 -404 -174 -571 -139 -718 39
-165 147 -285 312 -346 113 -41 296 -75 464 -87 52 -3 104 -8 115 -9 11 -2 26
-4 33 -4 9 -1 12 -34 12 -131 l0 -130 -1377 2 -1378 3 -3 128 c-1 70 1 127 5
128 156 12 418 76 523 126 217 104 343 236 522 551 150 263 326 678 775 1827
69 176 138 352 153 390 15 39 71 183 125 320 54 138 129 331 167 430 38 99 84
218 103 265 48 123 307 797 341 890 35 95 305 817 364 975 27 72 73 193 101
270 28 77 104 282 169 455 132 352 282 762 450 1225 62 171 114 313 117 318 2
4 198 6 434 5 l430 -3 31 -75z m-1580 -10305 c120 -16 229 -52 328 -108 59
-33 139 -89 139 -97 1 -3 -33 -44 -73 -92 l-74 -87 -48 31 c-75 48 -182 95
-248 108 -81 17 -239 14 -311 -5 -251 -65 -407 -271 -422 -556 -7 -133 12
-227 69 -341 71 -140 185 -236 336 -279 176 -50 453 0 562 101 l30 28 0 156 0
156 -232 2 -233 3 -5 98 c-3 53 -3 102 -2 107 4 12 688 14 696 2 3 -5 6 -152
7 -328 l1 -319 -57 -52 c-143 -130 -438 -225 -650 -210 -125 9 -259 43 -365
94 -82 39 -107 58 -185 137 -134 135 -205 286 -235 495 -12 88 1 283 27 376
73 271 271 477 528 550 158 44 255 51 417 30z m6189 5 c125 -12 236 -48 338
-110 94 -56 191 -135 191 -155 0 -7 -36 -51 -79 -96 l-79 -84 -46 43 c-131
121 -265 168 -451 159 -174 -8 -278 -56 -388 -177 -94 -104 -153 -241 -164
-380 -16 -207 101 -445 272 -555 28 -18 91 -46 141 -64 80 -27 105 -31 196
-31 160 0 271 41 407 151 l64 52 64 -66 c35 -36 69 -67 76 -70 7 -2 -19 -36
-60 -78 -88 -91 -201 -162 -315 -197 -74 -22 -101 -25 -243 -26 -169 0 -254
14 -372 65 -116 49 -243 151 -321 257 -149 201 -208 433 -168 660 34 190 102
325 231 457 128 130 264 200 460 235 119 22 124 22 246 10z m-8304 -12 c5 -7
20 -40 33 -73 13 -33 43 -102 67 -153 24 -52 43 -96 43 -98 0 -2 11 -27 24
-56 13 -29 44 -102 69 -163 60 -148 145 -343 326 -749 82 -187 148 -343 145
-348 -8 -13 -248 -10 -261 3 -6 6 -47 94 -89 195 l-78 184 -296 0 c-163 0
-344 2 -403 4 -71 2 -112 0 -123 -8 -8 -7 -28 -41 -43 -76 -16 -36 -49 -114
-76 -175 -26 -60 -52 -116 -57 -122 -15 -19 -278 -18 -278 0 0 7 12 38 26 68
15 30 88 191 164 359 76 168 151 334 168 370 17 36 48 106 70 155 86 196 165
373 194 435 16 36 41 92 55 125 14 33 34 77 44 98 l19 37 124 0 c87 0 126 -4
133 -12z m19293 2 c0 -10 -24 -43 -353 -508 -103 -144 -187 -270 -187 -281 0
-10 130 -205 290 -432 159 -228 290 -417 290 -421 0 -14 -284 -9 -303 5 -16
12 -156 213 -341 489 -50 76 -96 138 -101 138 -6 0 -62 -75 -125 -166 -63 -91
-162 -234 -220 -317 l-105 -152 -153 -3 c-86 -1 -152 1 -152 7 0 8 44 72 356
516 213 303 239 345 229 360 -17 25 -264 374 -393 555 -69 96 -127 183 -130
193 -4 16 8 17 149 17 l154 -1 102 -152 c202 -303 276 -407 288 -407 14 0 30
22 254 347 72 105 137 196 144 202 8 6 71 12 143 14 71 1 137 4 147 5 9 1 17
-2 17 -8z m-14782 -122 l3 -118 -456 0 -455 0 2 -235 3 -236 407 1 408 0 5
-22 c3 -13 4 -63 2 -113 l-2 -90 -412 -3 -413 -2 0 -234 c0 -207 2 -235 16
-240 9 -4 222 -6 473 -6 l456 1 5 -103 c3 -57 1 -109 -4 -115 -6 -10 -139 -13
-606 -13 -470 0 -599 3 -601 13 -2 6 -3 378 -1 825 l2 812 583 -2 582 -3 3
-117z m1044 41 c35 -45 82 -107 106 -138 24 -31 51 -65 60 -76 9 -11 75 -94
147 -185 161 -204 291 -369 313 -395 39 -46 220 -282 237 -307 9 -16 21 -28
26 -28 5 0 10 264 11 598 l3 597 118 3 117 3 -2 -813 -3 -813 -110 -3 c-60 -1
-115 1 -121 5 -6 5 -46 54 -90 109 -43 56 -189 240 -324 409 -135 170 -281
354 -324 409 -129 166 -208 257 -218 254 -5 -2 -9 -241 -8 -595 l0 -593 -22
-5 c-13 -3 -68 -5 -123 -3 l-100 3 -3 810 c-1 446 0 816 3 823 3 9 38 12 124
12 l120 0 63 -81z m4349 -284 c118 -198 222 -361 231 -363 8 -2 18 4 22 13 3
9 64 109 135 223 71 114 167 270 213 347 l84 140 147 3 c81 1 147 0 147 -2 0
-8 -236 -384 -414 -659 -91 -141 -175 -273 -186 -294 -19 -36 -20 -56 -20
-366 l0 -328 -132 3 -133 3 -5 335 c-5 320 -6 336 -26 365 -60 85 -574 925
-574 937 0 5 66 7 148 6 l147 -3 216 -360z m3713 349 c8 -20 8 -172 0 -201
l-6 -23 -439 0 -439 0 0 -245 0 -245 23 -1 c12 0 191 -1 397 -2 l375 -2 6
-110 c4 -60 5 -112 3 -114 -2 -2 -175 -4 -386 -4 -211 0 -391 -4 -400 -9 -17
-8 -18 -35 -18 -343 l0 -335 -135 0 -135 0 0 825 0 825 574 0 c514 0 574 -2
580 -16z m956 -694 l0 -700 425 0 425 0 0 -120 0 -120 -554 0 -553 0 -7 77
c-3 42 -6 411 -6 820 l0 743 135 0 135 0 0 -700z m2658 588 l-3 -113 -455 -5
-455 -5 0 -230 0 -230 415 -5 415 -5 3 -112 3 -113 -416 0 -415 0 0 -240 0
-240 475 0 475 0 0 -115 0 -115 -610 0 -610 0 0 774 c0 425 -3 794 -6 820 l-7
46 597 0 597 0 -3 -112z m-2574 -2779 c303 -76 502 -243 611 -514 71 -179 74
-435 5 -630 -61 -176 -216 -347 -395 -437 -111 -57 -210 -80 -365 -85 -226 -8
-381 31 -542 138 -151 100 -258 240 -320 419 -33 94 -33 97 -33 280 0 183 0
186 33 279 18 52 49 122 69 155 190 317 583 483 937 395z m-9079 2 c242 -50
452 -197 571 -401 91 -154 115 -244 115 -431 0 -202 -45 -345 -151 -487 -126
-169 -245 -254 -440 -317 -70 -23 -109 -28 -224 -33 -154 -5 -241 6 -348 44
-188 66 -307 158 -413 319 -98 148 -138 287 -139 475 0 244 82 442 253 610
201 198 490 280 776 221z m13377 -1 c48 -10 117 -31 155 -46 81 -32 212 -111
220 -131 6 -15 -115 -203 -130 -203 -4 0 -25 13 -45 29 -51 41 -166 96 -243
116 -80 22 -240 25 -294 6 -98 -34 -157 -102 -163 -190 -4 -52 -1 -60 30 -101
52 -69 116 -105 278 -155 347 -110 442 -154 528 -249 155 -169 138 -442 -39
-611 -111 -106 -263 -152 -474 -142 -174 8 -296 40 -435 113 -79 41 -200 131
-200 147 1 7 35 49 78 95 l77 83 69 -51 c158 -116 311 -167 465 -157 115 8
173 30 232 86 85 83 91 192 16 278 -42 48 -154 100 -344 158 -182 55 -259 85
-334 131 -190 115 -257 343 -161 548 63 135 178 216 355 251 98 20 259 17 359
-5z m-9240 -330 c82 -184 192 -434 245 -555 176 -406 244 -559 284 -643 21
-46 39 -90 39 -98 0 -12 -24 -14 -137 -12 l-138 3 -81 190 -81 190 -410 3
c-321 2 -413 -1 -421 -10 -5 -7 -24 -47 -41 -88 -17 -41 -55 -122 -83 -180
l-53 -105 -127 -3 c-71 -1 -128 1 -128 6 0 19 130 319 327 757 48 105 103 228
123 275 108 247 255 568 274 598 5 9 39 12 133 10 l126 -3 149 -335z m-10342
-489 l0 -819 -117 -4 c-65 -2 -124 1 -131 6 -10 7 -12 172 -11 817 0 444 3
810 6 813 4 3 62 6 130 6 l123 0 0 -819z m1151 707 c46 -62 118 -155 160 -208
41 -52 103 -131 136 -175 34 -44 71 -91 83 -105 82 -100 259 -329 381 -492 44
-60 84 -108 90 -108 6 0 9 200 9 593 l-1 592 113 5 c62 3 116 3 121 0 4 -4 6
-373 5 -821 l-3 -814 -113 0 -114 0 -24 30 c-14 17 -104 134 -201 260 -97 127
-263 340 -367 474 -105 134 -225 288 -266 342 -41 54 -78 99 -82 99 -5 0 -9
-269 -10 -597 l-3 -598 -108 -5 c-67 -3 -112 -1 -116 5 -10 12 -15 1610 -6
1625 4 6 53 10 119 10 l112 0 85 -112z m2229 -36 c63 -80 158 -200 210 -267
130 -163 553 -713 575 -747 9 -16 23 -28 31 -28 12 0 14 97 16 593 l3 592 115
0 115 0 3 -823 2 -824 -109 4 c-135 4 -117 -11 -324 263 -131 174 -517 674
-575 745 -79 96 -128 160 -144 188 -11 17 -23 32 -26 32 -4 0 -7 -181 -7 -403
0 -221 -2 -496 -5 -610 l-5 -209 -115 -1 -115 0 -3 821 -2 822 122 -1 123 0
115 -147z m4241 108 c16 -33 93 -224 299 -745 166 -417 194 -485 204 -482 13
4 19 17 64 137 22 58 109 278 194 490 85 212 176 440 202 506 l47 122 132 4
c73 3 135 2 139 -1 4 -4 -6 -40 -23 -81 -17 -41 -102 -253 -190 -470 -87 -217
-223 -550 -302 -740 l-144 -345 -124 -3 -125 -3 -22 53 c-12 29 -101 247 -198
483 -97 237 -221 538 -274 670 -54 132 -116 282 -139 334 -22 51 -38 97 -36
101 3 5 67 7 142 7 l137 -2 17 -35z m4919 -75 l0 -115 -260 0 -260 0 -2 -702
-3 -703 -127 -3 -128 -3 0 706 0 705 -260 0 -260 0 0 115 0 115 650 0 650 0 0
-115z m948 -707 l-3 -823 -132 -3 -133 -3 0 153 c0 84 -3 449 -7 810 -3 361
-3 664 0 673 5 12 29 15 142 15 l135 0 -2 -822z m3554 620 c278 -342 553 -689
682 -860 49 -65 92 -118 97 -118 5 0 9 256 9 584 0 523 2 584 16 590 9 3 63 6
120 6 l104 0 0 -820 0 -820 -109 0 -110 0 -78 103 c-119 154 -344 441 -584
742 -118 149 -233 293 -254 322 -21 29 -42 50 -47 47 -4 -3 -8 -277 -8 -610
l0 -604 -115 0 -115 0 -1 53 c-1 28 -1 394 0 812 1 418 1 763 1 768 0 4 51 7
114 7 l113 0 165 -202z"/>
<path d="M23776 30814 c-3 -8 1 -14 9 -14 20 0 28 17 11 23 -8 3 -17 -1 -20
-9z"/>
<path d="M23734 30749 c-3 -6 -17 -8 -31 -4 -16 4 -22 2 -18 -4 3 -7 0 -8 -9
-5 -9 4 -16 1 -16 -6 0 -7 -8 -19 -17 -26 -10 -7 -15 -16 -11 -19 9 -10 89 24
125 52 26 22 27 23 6 23 -12 0 -25 -5 -29 -11z"/>
<path d="M23505 30690 c3 -5 8 -10 11 -10 2 0 4 5 4 10 0 6 -5 10 -11 10 -5 0
-7 -4 -4 -10z"/>
<path d="M23689 30674 l-34 -26 38 6 c38 7 37 7 41 -36 1 -7 -5 -12 -13 -10
-7 1 -24 -4 -38 -13 -23 -16 -25 -15 -30 4 -3 12 -13 21 -22 21 -13 0 -13 -2
-2 -9 8 -5 10 -14 6 -21 -5 -9 -4 -11 4 -6 7 4 15 -2 20 -16 6 -13 10 -18 10
-12 1 5 23 18 50 28 40 14 48 21 44 37 -3 10 -9 19 -14 19 -5 0 -6 7 -2 16 5
14 9 13 24 -7 9 -12 15 -29 12 -36 -3 -7 2 -13 11 -13 18 0 22 15 6 25 -5 3
-7 20 -4 38 4 26 3 29 -6 15 -9 -15 -14 -16 -30 -6 -10 7 -16 16 -14 20 11 18
-24 6 -57 -18z"/>
<path d="M23820 30685 c0 -9 6 -12 15 -9 8 4 15 10 15 15 0 5 -7 9 -15 9 -8 0
-15 -7 -15 -15z"/>
<path d="M23590 30656 c0 -7 11 -16 25 -18 28 -6 36 16 9 26 -24 9 -34 7 -34
-8z"/>
<path d="M23582 30569 c2 -7 10 -15 17 -17 8 -3 12 1 9 9 -2 7 -10 15 -17 17
-8 3 -12 -1 -9 -9z"/>
<path d="M23635 30560 c-3 -5 -1 -10 4 -10 6 0 11 5 11 10 0 6 -2 10 -4 10 -3
0 -8 -4 -11 -10z"/>
<path d="M23525 30459 c-12 -18 3 -22 20 -5 14 14 14 16 1 16 -8 0 -18 -5 -21
-11z"/>
<path d="M23505 30359 c1 -29 25 -68 25 -41 0 7 9 12 21 12 15 0 20 5 17 23
-2 14 -10 22 -23 22 -11 0 -25 3 -31 7 -7 4 -10 -4 -9 -23z"/>
<path d="M23452 30311 c-7 -4 -10 -15 -6 -24 3 -10 1 -17 -5 -17 -6 0 -11 6
-11 13 0 7 -3 8 -8 2 -10 -14 -73 -36 -83 -29 -5 3 -9 -2 -9 -10 0 -8 8 -19
17 -25 15 -8 14 -12 -15 -39 -18 -17 -32 -35 -32 -41 0 -6 -5 -11 -11 -11 -25
0 0 -24 27 -26 16 -1 39 -5 52 -9 14 -5 22 -3 22 4 0 6 -3 10 -7 10 -36 -6
-43 36 -10 60 15 11 16 15 6 22 -9 5 -10 9 -2 9 6 0 17 15 23 33 10 24 14 28
17 14 3 -12 10 -16 24 -12 11 4 19 2 19 -4 0 -6 9 -11 20 -11 25 0 25 7 2 58
-12 27 -22 38 -30 33z"/>
<path d="M23365 30290 c3 -5 8 -10 11 -10 2 0 4 5 4 10 0 6 -5 10 -11 10 -5 0
-7 -4 -4 -10z"/>
<path d="M23173 30205 c-10 -22 -9 -25 8 -25 25 0 44 36 23 44 -9 3 -16 6 -17
6 -1 0 -7 -11 -14 -25z m24 -7 c-3 -8 -6 -5 -6 6 -1 11 2 17 5 13 3 -3 4 -12
1 -19z"/>
<path d="M23250 30120 c0 -5 -16 -12 -36 -16 -19 -3 -32 -10 -27 -15 12 -12
91 14 86 29 -5 14 -23 16 -23 2z"/>
<path d="M23265 30070 c27 -12 43 -12 25 0 -8 5 -22 9 -30 9 -10 0 -8 -3 5 -9z"/>
<path d="M23186 30061 c-4 -7 -5 -15 -2 -18 9 -9 19 4 14 18 -4 11 -6 11 -12
0z"/>
<path d="M23216 30055 c4 -9 11 -14 16 -13 15 5 11 23 -6 26 -11 2 -14 -2 -10
-13z"/>
<path d="M23198 30018 c9 -9 15 -9 24 0 9 9 7 12 -12 12 -19 0 -21 -3 -12 -12z"/>
<path d="M23121 30004 c0 -11 3 -14 6 -6 3 7 2 16 -1 19 -3 4 -6 -2 -5 -13z"/>
<path d="M22997 30003 c-12 -12 -7 -21 11 -19 10 0 16 -6 16 -16 -1 -10 4 -18
12 -18 20 0 17 23 -6 43 -23 19 -24 20 -33 10z"/>
<path d="M23210 29949 c0 -5 -4 -8 -9 -5 -5 3 -14 -1 -21 -9 -9 -10 -9 -15 -1
-15 6 0 11 6 11 13 0 8 3 8 8 1 5 -7 14 -7 30 2 20 10 21 12 7 18 -22 8 -25 8
-25 -5z"/>
<path d="M23010 29911 c0 -5 5 -13 10 -16 6 -3 10 -2 10 4 0 5 -4 13 -10 16
-5 3 -10 2 -10 -4z"/>
<path d="M23098 29900 c-21 -4 -47 -15 -58 -25 -11 -10 -20 -15 -20 -11 0 4
-6 1 -14 -6 -23 -21 -10 -22 36 -1 127 58 126 57 56 43z"/>
<path d="M19880 28356 c0 -2 7 -7 16 -10 8 -3 12 -2 9 4 -6 10 -25 14 -25 6z"/>
<path d="M19590 28340 c-13 -8 -12 -10 3 -10 9 0 17 5 17 10 0 12 -1 12 -20 0z"/>
<path d="M19765 28324 c-17 -13 -18 -16 -5 -24 10 -6 17 -4 23 6 14 24 4 34
-18 18z"/>
<path d="M20085 28310 c-3 -5 -2 -10 4 -10 6 0 7 -7 4 -17 -4 -11 -3 -14 5 -9
14 9 16 33 3 41 -5 3 -12 1 -16 -5z"/>
<path d="M19695 28301 c3 -6 -2 -14 -11 -19 -19 -11 -11 -32 12 -32 8 0 12 5
9 10 -4 6 -2 17 4 24 9 10 8 15 -4 20 -9 3 -13 2 -10 -3z"/>
<path d="M19940 28295 c0 -9 9 -15 25 -15 14 0 25 5 25 11 0 6 -7 8 -16 5 -8
-3 -12 -2 -9 4 3 6 -1 10 -9 10 -9 0 -16 -7 -16 -15z"/>
<path d="M19878 28273 c12 -9 22 -22 22 -30 0 -8 5 -11 10 -8 12 7 14 44 3 46
-5 1 -19 3 -33 4 l-25 2 23 -14z"/>
<path d="M20147 28276 c-4 -10 -1 -13 8 -9 8 3 12 9 9 14 -7 12 -11 11 -17 -5z"/>
<path d="M19976 28261 c-4 -5 1 -8 9 -7 21 3 31 16 12 16 -9 0 -18 -4 -21 -9z"/>
<path d="M20085 28239 c-4 -6 -3 -15 3 -21 6 -6 11 -4 15 6 7 18 -9 31 -18 15z"/>
<path d="M19855 28219 c-10 -14 -1 -21 19 -13 9 3 13 10 10 15 -7 12 -21 11
-29 -2z"/>
<path d="M20060 28194 c0 -8 5 -12 10 -9 6 4 8 11 5 16 -9 14 -15 11 -15 -7z"/>
<path d="M19850 28179 c-12 -8 -8 -9 16 -5 34 5 54 -8 54 -36 0 -24 17 -23 31
3 6 12 7 19 1 15 -5 -3 -21 3 -35 14 -28 22 -45 25 -67 9z"/>
<path d="M20063 28154 c0 -8 6 -14 14 -14 7 0 13 4 13 9 0 5 -6 11 -13 14 -8
3 -14 -1 -14 -9z"/>
<path d="M19868 28143 c7 -3 16 -2 19 1 4 3 -2 6 -13 5 -11 0 -14 -3 -6 -6z"/>
<path d="M19890 28120 c-8 -15 -8 -18 3 -14 8 3 14 11 14 19 0 20 -4 19 -17
-5z"/>
<path d="M13472 21307 c-6 -7 -40 -90 -76 -183 -35 -93 -91 -241 -125 -329
-118 -305 -150 -391 -210 -560 -33 -93 -84 -240 -115 -325 -30 -85 -103 -294
-161 -465 -58 -170 -121 -353 -140 -405 -178 -506 -229 -648 -306 -861 -49
-135 -89 -249 -89 -252 0 -4 563 -7 1250 -7 688 0 1250 2 1250 5 0 6 -134 367
-247 665 -47 124 -166 443 -266 710 -258 693 -295 792 -489 1310 -97 256 -192
515 -213 575 -47 138 -48 140 -63 122z"/>
<path d="M10553 12093 c-7 -3 -13 -10 -13 -17 0 -13 -115 -286 -210 -496 -79
-176 -80 -177 -73 -184 9 -9 601 -7 606 2 4 6 -48 137 -106 262 -8 19 -40 94
-70 165 -87 206 -121 273 -134 268z"/>
<path d="M24999 9287 c-212 -63 -368 -235 -416 -459 -19 -92 -12 -247 15 -335
55 -172 186 -312 360 -381 61 -24 80 -26 202 -27 116 0 145 3 202 23 236 82
389 305 389 566 0 135 -13 195 -62 296 -33 66 -59 101 -118 160 -160 157 -372
216 -572 157z"/>
<path d="M15955 9293 c-16 -2 -66 -22 -111 -43 -137 -66 -244 -190 -302 -352
-23 -66 -26 -87 -26 -213 0 -126 2 -147 26 -207 72 -189 214 -326 391 -379 50
-15 96 -20 170 -20 181 1 296 47 418 170 97 98 142 186 166 327 16 95 16 107
0 204 -13 78 -27 125 -58 189 -75 156 -238 287 -397 320 -50 10 -213 13 -277
4z"/>
<path d="M20100 9134 c-109 -239 -270 -613 -270 -627 0 -16 26 -17 305 -17
168 0 305 2 305 4 0 2 -30 73 -66 158 -36 84 -99 236 -141 338 -41 102 -81
191 -88 199 -11 12 -18 3 -45 -55z"/>
<path d="M28071 8644 c0 -11 3 -14 6 -6 3 7 2 16 -1 19 -3 4 -6 -2 -5 -13z"/>
<path d="M28072 8535 c0 -16 2 -22 5 -12 2 9 2 23 0 30 -3 6 -5 -1 -5 -18z"/>
<path d="M28072 8380 c0 -19 2 -27 5 -17 2 9 2 25 0 35 -3 9 -5 1 -5 -18z"/>
<path d="M28072 8310 c0 -19 2 -27 5 -17 2 9 2 25 0 35 -3 9 -5 1 -5 -18z"/>
<path d="M28072 8210 c0 -19 2 -27 5 -17 2 9 2 25 0 35 -3 9 -5 1 -5 -18z"/>
<path d="M28081 8144 c0 -11 3 -14 6 -6 3 7 2 16 -1 19 -3 4 -6 -2 -5 -13z"/>
</g>
</svg>
